<svg width="16" height="16" viewBox="0 0 16 16" fill="none" xmlns="http://www.w3.org/2000/svg">
<path d="M13.2492 3.91642C12.2781 3.81991 11.307 3.74753 10.3298 3.69324V3.68721L10.1971 2.90307C10.1067 2.34814 9.97395 1.51575 8.5625 1.51575H6.98216C5.57432 1.51575 5.44404 2.31195 5.34753 2.89704L5.22086 3.66912C4.6599 3.70531 4.09893 3.7415 3.53797 3.79579L2.30748 3.91642C2.1883 3.92762 2.07844 3.9857 2.00209 4.0779C1.92573 4.17009 1.88913 4.28884 1.90033 4.40802C1.91152 4.5272 1.96961 4.63705 2.0618 4.71341C2.15399 4.78976 2.27274 4.82637 2.39192 4.81517L3.62242 4.69453C6.79955 4.42027 9.99607 4.4627 13.1648 4.8212H13.2131C13.3258 4.82074 13.4344 4.77859 13.5179 4.70287C13.6014 4.62714 13.654 4.52319 13.6654 4.41103C13.6745 4.29054 13.636 4.17128 13.5582 4.07883C13.4804 3.98637 13.3695 3.92807 13.2492 3.91642Z" fill="white"/>
<path d="M12.1383 5.67177C12.0673 5.59764 11.9821 5.53859 11.8878 5.49817C11.7935 5.45775 11.692 5.43678 11.5894 5.43653H3.96633C3.86363 5.43622 3.76195 5.45693 3.66755 5.49739C3.57316 5.53784 3.48804 5.59719 3.41743 5.67177C3.34697 5.74774 3.29242 5.83705 3.25699 5.93442C3.22157 6.0318 3.20598 6.13527 3.21114 6.23876L3.58511 12.4274C3.65146 13.3443 3.73591 14.4903 5.84103 14.4903H9.71347C11.8186 14.4903 11.903 13.3503 11.9694 12.4274L12.3434 6.24479C12.3491 6.14043 12.3339 6.03598 12.2987 5.93757C12.2635 5.83917 12.2089 5.74879 12.1383 5.67177ZM8.77974 11.4684H6.76993C6.64995 11.4684 6.53488 11.4207 6.45004 11.3359C6.3652 11.251 6.31754 11.136 6.31754 11.016C6.31754 10.896 6.3652 10.7809 6.45004 10.6961C6.53488 10.6113 6.64995 10.5636 6.76993 10.5636H8.77853C8.89852 10.5636 9.01358 10.6113 9.09842 10.6961C9.18326 10.7809 9.23092 10.896 9.23092 11.016C9.23092 11.136 9.18326 11.251 9.09842 11.3359C9.01358 11.4207 8.89852 11.4684 8.77853 11.4684H8.77974ZM9.28642 9.05563H6.27049C6.15051 9.05563 6.03545 9.00797 5.95061 8.92313C5.86577 8.83829 5.8181 8.72323 5.8181 8.60325C5.8181 8.48327 5.86577 8.3682 5.95061 8.28336C6.03545 8.19852 6.15051 8.15086 6.27049 8.15086H9.28642C9.4064 8.15086 9.52146 8.19852 9.6063 8.28336C9.69114 8.3682 9.7388 8.48327 9.7388 8.60325C9.7388 8.72323 9.69114 8.83829 9.6063 8.92313C9.52146 9.00797 9.4064 9.05563 9.28642 9.05563Z" fill="white"/>
</svg>
