<svg width="168" height="43" viewBox="0 0 168 43" fill="none" xmlns="http://www.w3.org/2000/svg">
<path d="M22.3084 0C9.99066 0 0 9.57688 0 21.3878C0 28.5132 3.63261 34.82 9.22154 38.7069C9.10716 38.4934 8.99672 38.2798 8.89417 38.0584C6.85108 33.784 6.74458 28.8769 8.58652 24.2427C10.2944 19.9525 13.5168 16.374 17.4294 14.4286C22.2137 12.0482 26.998 12.5662 29.897 13.2819L27.9565 15.5397L25.7832 18.0703C23.9847 17.9754 21.8785 18.2127 19.8117 19.2407C13.1657 22.5464 11.2725 30.5851 13.7337 35.7373C15.0787 38.5527 17.528 40.6958 20.6321 41.7713C22.4543 42.404 24.3752 42.6215 26.2763 42.4356C36.7087 40.6444 44.6247 31.9018 44.6247 21.3839C44.6207 9.57688 34.6301 0 22.3084 0Z" fill="#CC3638"/>
<path d="M75.8497 28.3193C75.1608 27.9427 74.628 27.3915 74.2514 26.6934C73.8748 25.9861 73.6819 25.1594 73.6819 24.2133C73.6819 23.2763 73.8748 22.4588 74.2606 21.7423C74.6464 21.0258 75.1792 20.4747 75.8681 20.0889C76.557 19.6939 77.3378 19.501 78.2104 19.501C79.0831 19.501 79.8639 19.6939 80.5528 20.0889C81.2417 20.4839 81.7745 21.035 82.1603 21.7423C82.5461 22.4588 82.739 23.2763 82.739 24.2133C82.739 25.1594 82.5461 25.9861 82.1695 26.6934C81.7929 27.4007 81.2601 27.9427 80.5712 28.3193C79.8822 28.6959 79.1015 28.8888 78.2104 28.8888C77.3194 28.8888 76.5386 28.6959 75.8497 28.3193ZM80.5528 26.8036C81.1407 26.1606 81.4254 25.2972 81.4254 24.2133C81.4254 23.1202 81.1315 22.2475 80.5528 21.6045C79.9649 20.9615 79.1841 20.64 78.2104 20.64C77.2368 20.64 76.456 20.9615 75.8681 21.6045C75.2802 22.2475 74.9954 23.1202 74.9954 24.2133C74.9954 25.2972 75.2894 26.1606 75.8681 26.8036C76.456 27.4466 77.2368 27.7681 78.2104 27.7681C79.1841 27.7681 79.9649 27.4466 80.5528 26.8036Z" fill="#1F2937"/>
<path d="M84.7784 19.7674H86.0552V21.0901C86.4502 20.539 86.937 20.1348 87.5065 19.8776C88.076 19.6204 88.6915 19.4918 89.3345 19.4918C90.4092 19.4918 91.2176 19.7949 91.7411 20.4104C92.2647 21.0258 92.5311 21.8434 92.5311 22.8813V28.6132H91.2176V23.0099C91.2176 22.2475 91.043 21.6597 90.7032 21.2463C90.3633 20.8329 89.8213 20.6309 89.0681 20.6309C87.8097 20.6309 86.8084 21.2463 86.0736 22.4772V28.6132H84.76V19.7674H84.7784Z" fill="#1F2937"/>
<path d="M96.0769 28.1539C95.6544 27.6671 95.4339 26.9598 95.4339 26.0504V20.8788H94.1571V19.7766H95.4339V17.1219H96.7475V19.7766H98.8051V20.8788H96.7475V26.0963C96.7475 26.7118 96.8577 27.1435 97.0873 27.3915C97.317 27.6395 97.7303 27.7681 98.3274 27.7681C98.6214 27.7681 98.9337 27.6946 99.2644 27.5477V28.7051C98.8877 28.8245 98.4285 28.8888 97.8681 28.8888C97.0965 28.8888 96.4995 28.6408 96.0769 28.1539Z" fill="#1F2937"/>
<path d="M101.055 19.7674H102.332V21.5035C102.994 20.3461 104.224 19.7674 106.025 19.7674V20.9064C104.05 20.9064 102.828 21.6137 102.369 23.0283V28.6132H101.055V19.7674Z" fill="#1F2937"/>
<path d="M107.476 28.0896C106.907 27.5569 106.613 26.822 106.613 25.8851C106.613 24.9114 106.888 24.1673 107.449 23.6438C108.009 23.1202 108.808 22.863 109.864 22.863C111.04 22.863 112.06 23.1294 112.914 23.6529V22.9916C112.914 22.1924 112.703 21.6045 112.28 21.2096C111.858 20.8238 111.196 20.6309 110.287 20.6309C109.322 20.6309 108.431 20.8238 107.614 21.2187V20.0246C107.954 19.8684 108.386 19.7398 108.909 19.6388C109.433 19.5378 109.929 19.4918 110.406 19.4918C111.702 19.4918 112.657 19.8041 113.281 20.4379C113.906 21.0718 114.218 21.9444 114.218 23.0651V28.6132H112.997V27.4742C112.28 28.4203 111.224 28.8888 109.809 28.8888C108.836 28.8888 108.055 28.6224 107.476 28.0896ZM111.803 27.3364C112.299 27.07 112.666 26.7026 112.914 26.2249V24.8103C112.473 24.5256 112.032 24.3235 111.591 24.1949C111.15 24.0663 110.664 24.002 110.122 24.002C109.35 24.002 108.79 24.1582 108.441 24.4705C108.092 24.7828 107.917 25.2604 107.917 25.8943C107.917 27.1251 108.652 27.7406 110.131 27.7406C110.755 27.7314 111.307 27.5936 111.803 27.3364Z" fill="#1F2937"/>
<path d="M125.498 15H126.812V28.6132H125.498V15ZM127.097 24.1581L131.093 19.7766H132.764L128.75 24.1581L133.159 28.6132H131.487L127.097 24.1581Z" fill="#1F2937"/>
<path d="M135.667 28.1539C135.245 27.6671 135.033 26.9598 135.033 26.0504V20.8788H133.756V19.7766H135.033V17.1219H136.347V19.7766H138.404V20.8788H136.347V26.0963C136.347 26.7118 136.457 27.1435 136.687 27.3915C136.916 27.6395 137.33 27.7681 137.927 27.7681C138.221 27.7681 138.533 27.6946 138.864 27.5477V28.7051C138.487 28.8245 138.028 28.8888 137.467 28.8888C136.696 28.8888 136.09 28.6408 135.667 28.1539Z" fill="#1F2937"/>
<path d="M140.884 17.5996C140.728 17.425 140.646 17.223 140.646 16.9749C140.646 16.7269 140.728 16.5248 140.884 16.3503C141.041 16.1758 141.234 16.0931 141.463 16.0931C141.693 16.0931 141.886 16.1758 142.051 16.3503C142.216 16.5248 142.299 16.7269 142.299 16.9749C142.299 17.223 142.216 17.425 142.051 17.5996C141.886 17.7741 141.693 17.8568 141.463 17.8568C141.234 17.8568 141.041 17.7741 140.884 17.5996ZM140.82 19.7674H142.134V28.6132H140.82V19.7674Z" fill="#1F2937"/>
<path d="M144.678 19.7674H145.937V21.1453C146.718 20.043 147.691 19.4918 148.849 19.4918C149.529 19.4918 150.061 19.6204 150.438 19.8776C150.815 20.1348 151.09 20.5206 151.265 21.035C151.632 20.5114 152.082 20.1165 152.615 19.8684C153.157 19.6204 153.708 19.4918 154.278 19.4918C155.251 19.4918 155.959 19.7582 156.409 20.3002C156.85 20.8421 157.07 21.6413 157.07 22.6976V28.6132H155.775V22.863C155.775 22.0363 155.637 21.4667 155.371 21.1269C155.104 20.7962 154.627 20.6309 153.947 20.6309C152.973 20.6309 152.165 21.0993 151.531 22.0454C151.568 22.22 151.586 22.4956 151.586 22.8905V28.604H150.309V22.8905C150.309 22.0638 150.181 21.4851 149.933 21.1361C149.685 20.7962 149.216 20.6217 148.536 20.6217C147.563 20.6217 146.699 21.2096 145.964 22.3945V28.604H144.669V19.7674H144.678Z" fill="#1F2937"/>
<path d="M160.285 27.6579C159.449 26.8312 159.035 25.683 159.035 24.2133C159.035 22.7619 159.412 21.6137 160.156 20.7686C160.909 19.9235 161.975 19.501 163.353 19.501C164.28 19.501 165.07 19.6939 165.722 20.0797C166.365 20.4655 166.862 20.9983 167.183 21.6688C167.514 22.3486 167.679 23.111 167.679 23.9744V24.746H160.257C160.303 25.7565 160.643 26.5097 161.286 27.0149C161.929 27.5201 162.801 27.7681 163.895 27.7681C164.427 27.7681 164.951 27.713 165.465 27.612C165.98 27.5109 166.448 27.364 166.852 27.1803V28.3744C166.512 28.5214 166.053 28.6408 165.465 28.7418C164.877 28.8429 164.308 28.8888 163.757 28.8888C162.278 28.8888 161.12 28.4754 160.285 27.6579ZM166.457 23.7356C166.439 22.7803 166.163 22.0179 165.64 21.4667C165.116 20.9156 164.354 20.64 163.343 20.64C162.361 20.64 161.598 20.9248 161.084 21.4943C160.56 22.0638 160.294 22.8079 160.266 23.7356H166.457Z" fill="#1F2937"/>
<path d="M120.474 27.7682C119.509 27.7682 118.71 27.4559 118.095 26.8405C117.479 26.225 117.158 25.3432 117.158 24.2134C117.158 23.0835 117.47 22.2017 118.095 21.5771C118.719 20.9524 119.528 20.6401 120.529 20.6401C120.887 20.6401 121.227 20.6677 121.549 20.7228L122.329 19.8134L122.366 19.7767C122.265 19.7399 122.164 19.7124 122.063 19.6848C121.585 19.5654 121.034 19.5011 120.41 19.5011C119.537 19.5011 118.756 19.694 118.058 20.0706C117.369 20.4472 116.827 20.9984 116.432 21.7149C116.037 22.4313 115.844 23.2672 115.844 24.2134C115.844 25.1687 116.037 26.0046 116.423 26.7119C116.809 27.4192 117.342 27.9611 118.031 28.3286C118.719 28.7052 119.491 28.8889 120.355 28.8889C121.034 28.8889 121.622 28.8246 122.118 28.696C122.614 28.5674 123.055 28.3561 123.45 28.0622V26.868C123.018 27.1712 122.568 27.4008 122.091 27.5478C121.613 27.6948 121.08 27.7682 120.474 27.7682Z" fill="#1F2937"/>
<path d="M69.2544 27.7682C68.2899 27.7682 67.4907 27.4559 66.8753 26.8405C66.2506 26.2158 65.9383 25.3432 65.9383 24.2134C65.9383 23.0835 66.2506 22.2017 66.8753 21.5771C67.4999 20.9524 68.3082 20.6401 69.3095 20.6401C69.7045 20.6401 70.0627 20.6769 70.4026 20.7412L71.1925 19.8226L71.2109 19.8042C71.0915 19.7583 70.9629 19.7216 70.8343 19.6848C70.3566 19.5654 69.8055 19.5011 69.1809 19.5011C68.3082 19.5011 67.5274 19.694 66.8293 20.0706C66.1404 20.4472 65.5984 20.9984 65.2035 21.7149C64.8085 22.4313 64.6248 23.2672 64.6248 24.2134C64.6248 25.1687 64.8177 26.0046 65.2035 26.7119C65.5893 27.4192 66.122 27.9611 66.811 28.3286C67.4999 28.7052 68.2715 28.8889 69.1349 28.8889C69.8147 28.8889 70.4026 28.8246 70.8986 28.696C71.3946 28.5674 71.8355 28.3561 72.2305 28.0622V26.868C71.7988 27.1712 71.3487 27.4008 70.871 27.5478C70.3934 27.6948 69.8606 27.7682 69.2544 27.7682Z" fill="#1F2937"/>
</svg>
