<svg width="24" height="25" viewBox="0 0 24 25" fill="none" xmlns="http://www.w3.org/2000/svg">
<path d="M21.67 14.7997L21.27 19.7997C21.12 21.3297 21 22.4997 18.29 22.4997H5.71C3 22.4997 2.88 21.3297 2.73 19.7997L2.33 14.7997C2.25275 14.0129 2.486 13.227 2.98 12.6097L3 12.5897C3.27994 12.2479 3.6325 11.9727 4.03207 11.7842C4.43164 11.5956 4.86819 11.4985 5.31 11.4997H18.69C19.127 11.4983 19.5588 11.5935 19.9547 11.7784C20.3506 11.9634 20.7007 12.2336 20.98 12.5697C20.99 12.5797 21 12.5897 21 12.5997C21.2545 12.9021 21.4451 13.253 21.5603 13.6311C21.6754 14.0092 21.7128 14.4067 21.67 14.7997Z" stroke="#292D32" stroke-width="1.5"/>
<path d="M3.5 11.9297V6.7797C3.5 3.3797 4.35 2.5297 7.75 2.5297H9.02C9.42325 2.474 9.83391 2.54162 10.198 2.72367C10.5621 2.90572 10.8626 3.19368 11.06 3.5497L12.33 5.2497C12.4624 5.48635 12.6628 5.67774 12.9053 5.799C13.1479 5.92027 13.4213 5.9658 13.69 5.9297H16.24C19.64 5.9297 20.49 6.7797 20.49 10.1797V11.9697" stroke="#292D32" stroke-width="1.5" stroke-linecap="round" stroke-linejoin="round"/>
<path d="M9.42999 17.4997H14.57" stroke="#292D32" stroke-width="1.5" stroke-linecap="round" stroke-linejoin="round"/>
</svg>
