<svg width="24" height="25" viewBox="0 0 24 25" fill="none" xmlns="http://www.w3.org/2000/svg">
<path d="M21 11.9997C21 13.8786 20.4428 15.7153 19.399 17.2776C18.3551 18.8399 16.8714 20.0575 15.1355 20.7766C13.3996 21.4956 11.4895 21.6837 9.64665 21.3172C7.80383 20.9506 6.11109 20.0458 4.78249 18.7172C3.45389 17.3886 2.5491 15.6959 2.18254 13.8531C1.81598 12.0102 2.00412 10.1001 2.72315 8.3642C3.44218 6.6283 4.65982 5.14461 6.22209 4.10073C7.78435 3.05686 9.62108 2.49969 11.5 2.49969C14.0196 2.49969 16.4359 3.50058 18.2175 5.28218C19.9991 7.06378 21 9.48014 21 11.9997V11.9997Z" stroke="#1F2937" stroke-width="1.5" stroke-linecap="round" stroke-linejoin="round"/>
<path d="M22 22.4997L20 20.4997" stroke="#1F2937" stroke-width="1.5" stroke-linecap="round" stroke-linejoin="round"/>
</svg>
